IKResults
version=1
nRows=13
nColumns=40
inDegrees=yes

Units are S.I. units (second, meters, Newtons, ...)
Angles are in degrees.

endheader
time	pelvis_tilt	pelvis_list	pelvis_rotation	pelvis_tx	pelvis_ty	pelvis_tz	hip_flexion_r	hip_adduction_r	hip_rotation_r	knee_angle_r	knee_angle_r_beta	ankle_angle_r	subtalar_angle_r	mtp_angle_r	hip_flexion_l	hip_adduction_l	hip_rotation_l	knee_angle_l	knee_angle_l_beta	ankle_angle_l	subtalar_angle_l	mtp_angle_l	lumbar_extension	lumbar_bending	lumbar_rotation	arm_flex_r	arm_add_r	arm_rot_r	elbow_flex_r	pro_sup_r	wrist_flex_r	wrist_dev_r	arm_flex_l	arm_add_l	arm_rot_l	elbow_flex_l	pro_sup_l	wrist_flex_l	wrist_dev_l
      0.63000000	     16.76985322	      6.19301406	     -4.24523632	     -0.24931842	      0.92342147	     -1.44850229	    -18.62954283	    -10.43020139	     -8.72067097	    -56.94114111	     -0.99381039	    -23.39876258	    -17.91950949	     19.87246007	      5.88953873	     -7.12813718	      9.02116570	    -26.89050896	     -0.46932792	      5.08358276	     11.81599469	     -6.22358050	    -21.14836974	     -9.64845192	      3.95206816	     -5.31456653	    -15.37187626	     -3.66260104	     61.51370968	     89.95437384	      0.00000000	      0.00000000	    -19.48494498	      9.17565738	     -3.15805471	     11.88828821	     89.95437384	      0.00000000	      0.00000000
      0.64000000	     17.29361926	      6.03582731	     -3.99317811	     -0.23347281	      0.92565858	     -1.44916865	    -17.51919817	    -10.15480145	     -8.23459434	    -58.94661086	     -1.02881244	    -23.48820061	    -17.58270992	     19.52516050	      4.40297187	     -7.11141007	      8.86246994	    -27.34441955	     -0.47725015	      5.57387942	     11.49014251	     -6.13978650	    -21.82090917	     -9.41851594	      3.27490080	     -5.72406539	    -14.91705653	     -3.45086418	     60.23503351	     89.95437384	      0.00000000	      0.00000000	    -18.85032538	      9.33522993	     -3.40046546	     12.15753529	     89.95437384	      0.00000000	      0.00000000
      0.65000000	     17.37370735	      5.75493714	     -4.25795801	     -0.21801337	      0.92749972	     -1.44917680	    -15.71942577	     -9.64938312	     -6.86222594	    -60.88046188	     -1.06256451	    -20.80864538	    -17.17334203	     18.79873528	      3.22682296	     -7.01875896	      8.62096955	    -27.51864053	     -0.48029088	      7.29212718	     11.58635613	     -5.86743534	    -21.87282137	     -9.20607939	      3.20189474	     -5.89675399	    -14.74325209	     -2.60047136	     58.26876068	     89.95437384	      0.00000000	      0.00000000	    -18.10186172	      9.53163345	     -4.73160762	     12.31987337	     89.95437384	      0.00000000	      0.00000000
      0.66000000	     17.70448282	      5.39751167	     -4.17787179	     -0.20263452	      0.93017218	     -1.44950425	    -14.43960519	     -9.01394878	     -6.13257213	    -62.20818335	     -1.08573762	    -17.38781376	    -16.22376648	     17.71505249	      1.63398379	     -6.79043628	      8.35428318	    -27.44465296	     -0.47899956	      8.21199875	     11.34868184	     -5.39074758	    -22.27740948	     -8.80309611	      2.94535189	     -6.20328507	    -14.37641960	     -2.24927068	     56.27784092	     89.95437384	      0.00000000	      0.00000000	    -17.14158615	      9.84331586	     -6.20916205	     12.54777887	     89.95437384	      0.00000000	      0.00000000
      0.67000000	     18.03765232	      5.02517334	     -4.00901487	     -0.18739467	      0.93318584	     -1.44999430	    -13.17885624	     -8.37154913	     -5.69734996	    -63.08898624	     -1.10111053	    -14.75367239	    -16.23514179	     17.01863512	     -0.04641181	     -6.51216121	      8.20762459	    -27.17175500	     -0.47423659	      8.94194360	     10.98311765	     -5.27658127	    -22.69856697	     -8.36503808	      2.52393406	     -6.31828731	    -13.95991531	     -1.81880557	     53.88239400	     89.95437384	      0.00000000	      0.00000000	    -15.97743938	      9.99712071	     -6.69222127	     12.47193095	     89.95437384	      0.00000000	      0.00000000
      0.68000000	     18.32994043	      4.57190446	     -3.86541077	     -0.17230882	      0.93618400	     -1.45064788	    -11.82634738	     -7.67633875	     -5.32752619	    -63.65027020	     -1.11090678	    -12.60305999	    -16.16157250	     16.43910637	     -1.77892023	     -6.14908598	      8.12298702	    -26.65549858	     -0.46522621	      9.55371299	     10.65135032	     -5.17158147	    -23.04561368	     -7.79440328	      2.21988736	     -6.49389975	    -13.65697688	     -1.35061435	     51.50408076	     89.95437384	      0.00000000	      0.00000000	    -14.71482073	     10.09877969	     -7.09266610	     12.49569700	     89.95437384	      0.00000000	      0.00000000
      0.69000000	     18.56457911	      4.07333198	     -3.71956597	     -0.15709760	      0.93919077	     -1.45124752	    -10.54454948	     -6.93564318	     -5.05886040	    -63.76563804	     -1.11292033	    -10.34912304	    -16.19951604	     15.91889515	     -3.58029147	     -5.75422359	      8.01171707	    -25.89313552	     -0.45192047	     10.16738996	     10.32154185	     -5.07878083	    -23.30192408	     -7.17551222	      1.95488550	     -6.67829798	    -13.36399247	     -0.79765003	     48.94940388	     89.95437384	      0.00000000	      0.00000000	    -13.42591228	     10.20932863	     -7.55739131	     12.55115114	     89.95437384	      0.00000000	      0.00000000
      0.70000000	     19.21263750	      3.39223738	     -3.44562686	     -0.14155336	      0.94284932	     -1.45201222	     -9.96643489	     -5.98835227	     -5.00088227	    -63.28256023	     -1.10448904	     -7.94643071	    -15.91090418	     15.37999341	     -6.02730302	     -5.19039243	      7.61254600	    -24.81687449	     -0.43313617	     10.51328144	      9.89710294	     -4.86159042	    -23.98347845	     -6.31381780	      1.68135712	     -6.99284937	    -13.20244536	     -0.20732168	     46.53530249	     89.95437384	      0.00000000	      0.00000000	    -12.23699447	     10.41201250	     -8.20464896	     13.05805123	     89.95437384	      0.00000000	      0.00000000
      0.71000000	     19.22963517	      2.88009775	     -3.12775971	     -0.12655964	      0.94538796	     -1.45286970	     -8.56066900	     -5.24485052	     -5.13082524	    -62.80272379	     -1.09611431	     -5.93668675	    -16.25065675	     15.00940912	     -7.52158093	     -4.73857542	      7.27143282	    -24.06235113	     -0.41996725	     10.85211076	      9.63408026	     -4.76270908	    -24.02031581	     -5.59482430	      1.37232126	     -7.17657522	    -12.82414077	      0.05167921	     43.76912613	     89.95437384	      0.00000000	      0.00000000	    -10.88236391	     10.56237281	     -8.41809716	     13.38650711	     89.95437384	      0.00000000	      0.00000000
      0.72000000	     19.25313230	      2.26059198	     -2.73184571	     -0.11125682	      0.94774959	     -1.45372884	     -7.32999280	     -4.34433391	     -5.33605587	    -61.95335766	     -1.08129007	     -3.30771481	    -16.43221778	     14.58559475	     -9.08477979	     -4.12475971	      6.92681197	    -23.21594922	     -0.40519475	     11.19610631	      9.43334178	     -4.68006657	    -24.00291297	     -4.73864305	      1.06269690	     -7.42466938	    -12.51546939	      0.37564975	     40.95485015	     89.95437384	      0.00000000	      0.00000000	     -9.60934825	     10.73580786	     -8.53450649	     13.92422930	     89.95437384	      0.00000000	      0.00000000
      0.73000000	     19.32927784	      1.70088531	     -2.24529255	     -0.09601454	      0.94991943	     -1.45483633	     -6.21998232	     -3.58726269	     -5.76890672	    -60.83550458	     -1.06177986	     -0.68545931	    -16.45372116	     14.19340385	    -10.71915734	     -3.53849487	      6.57086451	    -22.26420472	     -0.38858368	     11.47405175	      9.19414659	     -4.63751911	    -24.04669123	     -3.87711797	      0.66785571	     -7.72975496	    -12.25966600	      0.69118907	     38.29714093	     89.95437384	      0.00000000	      0.00000000	     -8.35207930	     10.90788157	     -8.33608361	     14.66716571	     89.95437384	      0.00000000	      0.00000000
      0.74000000	     19.78863046	      1.11917651	     -1.62803057	     -0.08039326	      0.95239176	     -1.45598612	     -5.78562243	     -2.84498092	     -6.43930200	    -59.14064484	     -1.03219897	      1.26977960	    -16.14711894	     13.95071512	    -12.97648302	     -2.89007405	      6.39421364	    -20.88671242	     -0.36454190	     11.74470054	      9.10004673	     -4.71650548	    -24.46232890	     -2.96583467	      0.12848701	     -8.12125421	    -12.09376099	      1.18581478	     35.85853585	     89.95437384	      0.00000000	      0.00000000	     -7.22003886	     11.06694790	     -7.48564209	     15.67809986	     89.95437384	      0.00000000	      0.00000000
      0.75000000	     19.57402414	      0.83688143	     -1.31248566	     -0.06556884	      0.95344004	     -1.45693043	     -4.28820318	     -2.41944671	     -6.68695460	    -57.75539367	     -1.00802178	      2.98952099	    -16.10831779	     13.63450181	    -14.22632147	     -2.55747390	      6.15571789	    -20.07740673	     -0.35041685	     11.87205721	      8.60975033	     -4.70754994	    -24.20611911	     -2.43627684	     -0.10075235	     -8.47105673	    -11.81761819	      1.33299773	     33.29963070	     89.95437384	      0.00000000	      0.00000000	     -5.86639349	     11.22736695	     -6.80221668	     16.57014135	     89.95437384	      0.00000000	      0.00000000
